<?xml version="1.0" standalone="no"?>
<!DOCTYPE svg PUBLIC "-//W3C//DTD SVG 20010904//EN"
 "http://www.w3.org/TR/2001/REC-SVG-20010904/DTD/svg10.dtd">
<svg version="1.0" xmlns="http://www.w3.org/2000/svg"
 width="959.000000pt" height="959.000000pt" viewBox="0 0 959.000000 959.000000"
 preserveAspectRatio="xMidYMid meet">
<metadata>
Created by potrace 1.11, written by Peter Selinger 2001-2013
</metadata>
<g transform="translate(0.000000,959.000000) scale(0.100000,-0.100000)"
fill="#000000" stroke="none">
<path d="M4908 9145 c-2 -1 -39 -5 -83 -9 -44 -3 -89 -8 -100 -10 -11 -2 -54
-7 -95 -11 -41 -3 -82 -8 -90 -10 -8 -2 -39 -7 -69 -10 -30 -4 -63 -9 -75 -11
-12 -2 -34 -6 -51 -9 -109 -15 -374 -63 -395 -71 -8 -3 -28 -7 -45 -9 -31 -5
-378 -89 -430 -105 -16 -5 -97 -30 -180 -56 -678 -209 -1269 -521 -1725 -908
-112 -95 -339 -320 -430 -426 -36 -41 -67 -77 -70 -80 -29 -28 -209 -269 -290
-390 -149 -221 -349 -584 -435 -790 -15 -36 -35 -83 -45 -105 -70 -158 -158
-429 -196 -606 -22 -105 -39 -195 -50 -274 -3 -27 -8 -59 -10 -70 -2 -10 -6
-49 -10 -85 -3 -36 -8 -73 -10 -83 -18 -98 -26 -782 -10 -1018 13 -214 22
-318 31 -379 2 -14 9 -68 15 -120 23 -184 80 -445 134 -610 58 -178 74 -219
167 -415 93 -196 317 -527 499 -737 171 -197 477 -483 666 -624 43 -32 81 -62
84 -65 8 -10 178 -121 270 -176 212 -127 533 -269 700 -308 8 -2 49 -13 90
-24 41 -11 89 -22 105 -24 17 -3 55 -10 85 -16 30 -6 70 -13 90 -16 40 -5 104
-14 140 -21 113 -19 523 -26 680 -11 114 11 126 13 250 34 14 2 43 9 65 15 22
5 51 12 64 14 53 10 222 69 321 111 351 152 684 388 1015 718 321 322 406 444
496 720 85 262 119 498 114 810 -2 116 -5 220 -8 231 -3 12 -8 39 -11 60 -21
129 -110 357 -193 491 -120 192 -292 382 -435 476 -172 114 -328 156 -557 152
-123 -3 -195 -12 -321 -41 -242 -55 -483 -161 -589 -258 -137 -126 -186 -342
-96 -426 32 -30 77 -30 165 0 36 12 90 24 120 25 30 2 100 7 155 11 256 20
371 1 436 -74 42 -47 102 -176 129 -275 25 -90 33 -231 18 -302 -39 -190 -215
-348 -423 -382 -53 -9 -186 -8 -255 1 -139 20 -339 100 -453 182 -175 128
-275 272 -326 470 -28 111 -31 139 -36 319 -6 220 21 336 117 494 21 34 38 65
38 67 0 3 4 10 10 17 5 7 45 57 89 112 100 126 195 214 306 282 102 63 363
138 557 161 84 9 447 9 523 -1 51 -7 194 -34 274 -52 139 -32 378 -140 467
-211 214 -172 388 -434 489 -738 35 -104 87 -323 99 -416 3 -25 8 -56 11 -69
2 -13 7 -49 10 -80 3 -31 8 -67 10 -81 3 -14 7 -56 11 -95 3 -38 7 -86 9 -105
2 -19 6 -69 10 -110 3 -41 8 -86 10 -100 2 -14 7 -56 10 -95 6 -75 14 -144 21
-185 10 -65 16 -170 19 -330 3 -197 12 -247 59 -340 71 -140 182 -270 315
-368 104 -78 193 -119 326 -152 98 -24 126 -27 255 -25 80 2 156 6 170 9 13 3
41 8 60 11 151 22 369 117 512 222 59 44 187 149 198 165 3 4 37 40 76 80 130
135 296 347 438 556 42 63 76 115 76 117 0 2 13 23 29 47 94 139 244 440 326
653 38 98 99 287 111 340 2 11 10 47 18 80 16 63 18 71 40 200 22 123 31 188
51 350 20 171 27 635 12 865 -5 68 -10 127 -12 130 -1 3 -6 41 -10 85 -3 44
-10 101 -15 127 -5 26 -12 69 -16 95 -3 26 -8 50 -9 53 -2 3 -6 26 -10 50 -8
62 -73 342 -95 415 -56 181 -71 229 -104 320 -20 55 -36 109 -36 121 0 11 -12
43 -26 70 -14 27 -74 144 -133 259 -59 116 -135 257 -170 314 -35 57 -67 116
-73 132 -5 16 -14 29 -19 29 -4 0 -32 35 -60 78 -219 324 -533 671 -834 917
-26 22 -81 70 -120 108 -67 63 -96 83 -79 55 4 -7 -19 11 -51 41 -62 56 -135
107 -147 103 -5 -1 -8 3 -8 9 0 5 -4 7 -10 4 -5 -3 -10 -3 -10 2 0 4 -18 16
-39 27 -22 10 -52 32 -67 47 -15 16 -33 29 -41 29 -7 0 -52 24 -100 53 -48 29
-100 59 -116 66 -15 8 -42 27 -59 43 -26 23 -44 31 -60 27 -2 0 -70 33 -153
74 -216 107 -492 221 -669 278 -89 29 -284 83 -341 94 -55 12 -180 34 -215 40
-20 3 -45 7 -55 9 -11 2 -51 7 -90 11 -38 4 -79 10 -90 12 -22 5 -521 13 -527
8z"/>
<path d="M8404 7606 c-4 -10 -2 -22 4 -28 8 -8 13 -7 18 6 4 10 2 22 -4 28 -8
8 -13 7 -18 -6z"/>
<path d="M8500 7487 c0 -11 41 -48 50 -45 14 4 -17 48 -36 48 -8 0 -14 -2 -14
-3z"/>
</g>
</svg>
